<mxfile host="65bd71144e" scale="4" border="0">
    <diagram id="Mgyvj9K3PaVNol84s3qg" name="Page-1">
        <mxGraphModel dx="426" dy="243" grid="1" gridSize="10" guides="1" tooltips="1" connect="1" arrows="1" fold="1" page="1" pageScale="1" pageWidth="583" pageHeight="827" math="1" shadow="0">
            <root>
                <mxCell id="0"/>
                <mxCell id="1" parent="0"/>
                <mxCell id="24" value="" style="whiteSpace=wrap;html=1;fontFamily=Courier New;sketch=0;fillColor=#fff2cc;strokeColor=#d6b656;rotation=-90;shadow=0;glass=0;rounded=1;arcSize=30;opacity=80;" vertex="1" parent="1">
                    <mxGeometry x="143.63" y="76.62" width="50" height="10.25" as="geometry"/>
                </mxCell>
                <mxCell id="2" value="" style="whiteSpace=wrap;html=1;fillColor=#d5e8d4;strokeColor=#82b366;sketch=1;" vertex="1" parent="1">
                    <mxGeometry x="80" y="80" width="200" height="20" as="geometry"/>
                </mxCell>
                <mxCell id="3" value="&lt;font face=&quot;Courier New&quot;&gt;0&lt;/font&gt;" style="text;html=1;align=center;verticalAlign=middle;resizable=0;points=[];autosize=1;strokeColor=none;fillColor=none;sketch=1;fontStyle=1" vertex="1" parent="1">
                    <mxGeometry x="80" y="60" width="20" height="20" as="geometry"/>
                </mxCell>
                <mxCell id="4" value="n" style="text;html=1;align=center;verticalAlign=middle;resizable=0;points=[];autosize=1;strokeColor=none;fillColor=none;fontFamily=Courier New;sketch=1;fontStyle=1" vertex="1" parent="1">
                    <mxGeometry x="282" y="60" width="20" height="20" as="geometry"/>
                </mxCell>
                <mxCell id="7" value="" style="whiteSpace=wrap;html=1;fontFamily=Courier New;sketch=1;fillColor=#f8cecc;strokeColor=#b85450;rotation=90;" vertex="1" parent="1">
                    <mxGeometry x="210" y="30.63" width="23.5" height="118.75" as="geometry"/>
                </mxCell>
                <mxCell id="10" style="edgeStyle=orthogonalEdgeStyle;html=1;curved=1;fillColor=#f8cecc;strokeColor=#b85450;" edge="1" parent="1" source="11" target="7">
                    <mxGeometry relative="1" as="geometry"/>
                </mxCell>
                <mxCell id="11" value="&lt;font style=&quot;font-size: 10px;&quot;&gt;portion du tableau&lt;br style=&quot;font-size: 10px;&quot;&gt;qu'il reste Ã  explorer&lt;/font&gt;" style="text;html=1;align=center;verticalAlign=middle;resizable=0;points=[];autosize=1;strokeColor=#b85450;fillColor=#f8cecc;fontFamily=Helvetica;fontSize=10;" vertex="1" parent="1">
                    <mxGeometry x="166.75" y="119.38" width="110" height="30" as="geometry"/>
                </mxCell>
                <mxCell id="26" style="edgeStyle=none;html=1;dashed=1;strokeWidth=1;endArrow=classicThin;endFill=1;fillColor=#fff2cc;strokeColor=#d6b656;" edge="1" parent="1" source="22">
                    <mxGeometry relative="1" as="geometry">
                        <mxPoint x="210" y="67" as="targetPoint"/>
                    </mxGeometry>
                </mxCell>
                <mxCell id="22" value="&lt;font face=&quot;Courier New&quot;&gt;i&lt;/font&gt;" style="text;html=1;align=center;verticalAlign=middle;resizable=0;points=[];autosize=1;strokeColor=none;fillColor=none;sketch=1;fontStyle=1" vertex="1" parent="1">
                    <mxGeometry x="157.5" y="56.629999999999995" width="20" height="20" as="geometry"/>
                </mxCell>
            </root>
        </mxGraphModel>
    </diagram>
</mxfile>